<?xml version="1.0" standalone="no"?>
<!DOCTYPE svg PUBLIC "-//W3C//DTD SVG 20010904//EN"
 "http://www.w3.org/TR/2001/REC-SVG-20010904/DTD/svg10.dtd">
<svg version="1.0" xmlns="http://www.w3.org/2000/svg"
 width="353.000000pt" height="569.000000pt" viewBox="0 0 353.000000 569.000000"
 preserveAspectRatio="xMidYMid meet">

<g transform="translate(0.000000,569.000000) scale(0.100000,-0.100000)"
fill="#000000" stroke="none">
<path d="M1719 5600 c-347 -41 -709 -308 -941 -693 -59 -98 -59 -99 -292 -787
-107 -316 -253 -748 -325 -959 -72 -212 -131 -388 -131 -393 0 -4 399 -7 888
-6 l887 3 22 70 c12 39 90 313 173 610 151 537 248 880 486 1718 68 241 124
440 124 443 0 7 -821 2 -891 -6z"/>
<path d="M1788 2678 c-477 -1493 -809 -2530 -815 -2545 -7 -17 829 -18 962 -2
171 21 329 81 460 174 86 61 221 205 294 315 137 205 178 309 447 1130 136
415 266 810 290 878 24 68 44 125 44 128 0 2 -373 4 -828 4 l-828 0 -26 -82z"/>
</g>
</svg>
